<?xml version="1.0" encoding="UTF-8" standalone="no"?>
<svg xmlns="http://www.w3.org/2000/svg" xmlns:xlink="http://www.w3.org/1999/xlink" contentStyleType="text/css" height="775px" preserveAspectRatio="none" style="width:3054px;height:775px;background:#FFFFFF;" version="1.1" viewBox="0 0 3054 775" width="3054px" zoomAndPan="magnify"><defs xmlns=""/><g><!--class ncit:C172573 (ncit:C172573)--><g id="elem_ncit:C172573 (ncit:C172573)"><rect codeLine="8" fill="#F1F1F1" height="26.2969" id="ncit:C172573 (ncit:C172573)" rx="2.5" ry="2.5" style="stroke:#181818;stroke-width:0.5;" width="208" x="580" y="152.5"/><text fill="#000000" font-family="sans-serif" font-size="14" lengthAdjust="spacing" textLength="202" x="583" y="170.4951">ncit:C172573 (ncit:C172573)</text></g><!--class sio:010038 (sio:010038)--><g id="elem_sio:010038 (sio:010038)"><rect codeLine="29" fill="#F1F1F1" height="26.2969" id="sio:010038 (sio:010038)" rx="2.5" ry="2.5" style="stroke:#181818;stroke-width:0.5;" width="178" x="595" y="280.5"/><text fill="#000000" font-family="sans-serif" font-size="14" lengthAdjust="spacing" textLength="172" x="598" y="298.4951">sio:010038 (sio:010038)</text></g><!--class sio:001077 (sio:001077)--><g id="elem_sio:001077 (sio:001077)"><rect codeLine="10" fill="#F1F1F1" height="26.2969" id="sio:001077 (sio:001077)" rx="2.5" ry="2.5" style="stroke:#181818;stroke-width:0.5;" width="178" x="338" y="280.5"/><text fill="#000000" font-family="sans-serif" font-size="14" lengthAdjust="spacing" textLength="172" x="341" y="298.4951">sio:001077 (sio:001077)</text></g><!--class ncit:C16612 (ncit:C16612)--><g id="elem_ncit:C16612 (ncit:C16612)"><rect codeLine="42" fill="#F1F1F1" height="26.2969" id="ncit:C16612 (ncit:C16612)" rx="2.5" ry="2.5" style="stroke:#181818;stroke-width:0.5;" width="190" x="1201" y="554.5"/><text fill="#000000" font-family="sans-serif" font-size="14" lengthAdjust="spacing" textLength="184" x="1204" y="572.4951">ncit:C16612 (ncit:C16612)</text></g><!--class ncit:C43531 (ncit:C43531)--><g id="elem_ncit:C43531 (ncit:C43531)"><rect codeLine="20" fill="#F1F1F1" height="26.2969" id="ncit:C43531 (ncit:C43531)" rx="2.5" ry="2.5" style="stroke:#181818;stroke-width:0.5;" width="190" x="423" y="554.5"/><text fill="#000000" font-family="sans-serif" font-size="14" lengthAdjust="spacing" textLength="184" x="426" y="572.4951">ncit:C43531 (ncit:C43531)</text></g><!--class schema:WebAPI (schema:WebAPI)--><g id="elem_schema:WebAPI (schema:WebAPI)"><rect codeLine="13" fill="#F1F1F1" height="26.2969" id="schema:WebAPI (schema:WebAPI)" rx="2.5" ry="2.5" style="stroke:#181818;stroke-width:0.5;" width="244" x="2261" y="741.5"/><text fill="#000000" font-family="sans-serif" font-size="14" lengthAdjust="spacing" textLength="238" x="2264" y="759.4951">schema:WebAPI (schema:WebAPI)</text></g><!--class void:Dataset (void:Dataset)--><g id="elem_void:Dataset (void:Dataset)"><rect codeLine="53" fill="#F1F1F1" height="26.2969" id="void:Dataset (void:Dataset)" rx="2.5" ry="2.5" style="stroke:#181818;stroke-width:0.5;" width="194" x="2287" y="554.5"/><text fill="#000000" font-family="sans-serif" font-size="14" lengthAdjust="spacing" textLength="188" x="2290" y="572.4951">void:Dataset (void:Dataset)</text></g><!--class dcat:Dataset (dcat:Dataset)--><g id="elem_dcat:Dataset (dcat:Dataset)"><rect codeLine="16" fill="#F1F1F1" height="26.2969" id="dcat:Dataset (dcat:Dataset)" rx="2.5" ry="2.5" style="stroke:#181818;stroke-width:0.5;" width="198" x="2849" y="280.5"/><text fill="#000000" font-family="sans-serif" font-size="14" lengthAdjust="spacing" textLength="192" x="2852" y="298.4951">dcat:Dataset (dcat:Dataset)</text></g><!--class wp:Interaction (wp:Interaction)--><g id="elem_wp:Interaction (wp:Interaction)"><rect codeLine="19" fill="#F1F1F1" height="26.2969" id="wp:Interaction (wp:Interaction)" rx="2.5" ry="2.5" style="stroke:#181818;stroke-width:0.5;" width="216" x="709" y="741.5"/><text fill="#000000" font-family="sans-serif" font-size="14" lengthAdjust="spacing" textLength="210" x="712" y="759.4951">wp:Interaction (wp:Interaction)</text></g><!--class aopo:KeyEvent (aopo:KeyEvent)--><g id="elem_aopo:KeyEvent (aopo:KeyEvent)"><rect codeLine="22" fill="#F1F1F1" height="50.5938" id="aopo:KeyEvent (aopo:KeyEvent)" rx="2.5" ry="2.5" style="stroke:#181818;stroke-width:0.5;" width="427" x="1190.5" y="140"/><text fill="#000000" font-family="sans-serif" font-size="14" lengthAdjust="spacing" textLength="222" x="1293" y="157.9951">aopo:KeyEvent (aopo:KeyEvent)</text><line style="stroke:#181818;stroke-width:0.5;" x1="1191.5" x2="1616.5" y1="166.2969" y2="166.2969"/><ellipse cx="1201.5" cy="179.9453" fill="none" rx="3" ry="3" style="stroke:#038048;stroke-width:1.0;"/><text fill="#000000" font-family="sans-serif" font-size="14" lengthAdjust="spacing" textLength="401" x="1210.5" y="183.292">aopo:OrganContext : sio:001262 [0..1] sh:BlankNodeOrIRI</text></g><!--class ncit:C25338 (ncit:C25338)--><g id="elem_ncit:C25338 (ncit:C25338)"><rect codeLine="26" fill="#F1F1F1" height="26.2969" id="ncit:C25338 (ncit:C25338)" rx="2.5" ry="2.5" style="stroke:#181818;stroke-width:0.5;" width="190" x="1532" y="741.5"/><text fill="#000000" font-family="sans-serif" font-size="14" lengthAdjust="spacing" textLength="184" x="1535" y="759.4951">ncit:C25338 (ncit:C25338)</text></g><!--class rdf:Property (rdf:Property)--><g id="elem_rdf:Property (rdf:Property)"><rect codeLine="27" fill="#F1F1F1" height="26.2969" id="rdf:Property (rdf:Property)" rx="2.5" ry="2.5" style="stroke:#181818;stroke-width:0.5;" width="182" x="1640" y="7"/><text fill="#000000" font-family="sans-serif" font-size="14" lengthAdjust="spacing" textLength="176" x="1643" y="24.9951">rdf:Property (rdf:Property)</text></g><!--class rdfs:Class (rdfs:Class)--><g id="elem_rdfs:Class (rdfs:Class)"><rect codeLine="51" fill="#F1F1F1" height="26.2969" id="rdfs:Class (rdfs:Class)" rx="2.5" ry="2.5" style="stroke:#181818;stroke-width:0.5;" width="156" x="1653" y="152.5"/><text fill="#000000" font-family="sans-serif" font-size="14" lengthAdjust="spacing" textLength="150" x="1656" y="170.4951">rdfs:Class (rdfs:Class)</text></g><!--class pw:0000001 (pw:0000001)--><g id="elem_pw:0000001 (pw:0000001)"><rect codeLine="36" fill="#F1F1F1" height="50.5938" id="pw:0000001 (pw:0000001)" rx="2.5" ry="2.5" style="stroke:#181818;stroke-width:0.5;" width="370" x="952" y="268"/><text fill="#000000" font-family="sans-serif" font-size="14" lengthAdjust="spacing" textLength="190" x="1042" y="285.9951">pw:0000001 (pw:0000001)</text><line style="stroke:#181818;stroke-width:0.5;" x1="953" x2="1321" y1="294.2969" y2="294.2969"/><ellipse cx="963" cy="307.9453" fill="none" rx="3" ry="3" style="stroke:#038048;stroke-width:1.0;"/><text fill="#000000" font-family="sans-serif" font-size="14" lengthAdjust="spacing" textLength="344" x="972" y="311.292">sio:000253 : sio:000750 [0..1] sh:BlankNodeOrIRI</text></g><!--class dcat:DataService (dcat:DataService)--><g id="elem_dcat:DataService (dcat:DataService)"><rect codeLine="39" fill="#F1F1F1" height="26.2969" id="dcat:DataService (dcat:DataService)" rx="2.5" ry="2.5" style="stroke:#181818;stroke-width:0.5;" width="254" x="1943" y="280.5"/><text fill="#000000" font-family="sans-serif" font-size="14" lengthAdjust="spacing" textLength="248" x="1946" y="298.4951">dcat:DataService (dcat:DataService)</text></g><!--class aopo:AOP (aopo:AOP)--><g id="elem_aopo:AOP (aopo:AOP)"><rect codeLine="46" fill="#F1F1F1" height="26.2969" id="aopo:AOP (aopo:AOP)" rx="2.5" ry="2.5" style="stroke:#181818;stroke-width:0.5;" width="158" x="1325" y="7"/><text fill="#000000" font-family="sans-serif" font-size="14" lengthAdjust="spacing" textLength="152" x="1328" y="24.9951">aopo:AOP (aopo:AOP)</text></g><!--class ncit:C17021 (ncit:C17021)--><g id="elem_ncit:C17021 (ncit:C17021)"><rect codeLine="48" fill="#F1F1F1" height="26.2969" id="ncit:C17021 (ncit:C17021)" rx="2.5" ry="2.5" style="stroke:#181818;stroke-width:0.5;" width="190" x="7" y="280.5"/><text fill="#000000" font-family="sans-serif" font-size="14" lengthAdjust="spacing" textLength="184" x="10" y="298.4951">ncit:C17021 (ncit:C17021)</text></g><!--class iao:0000013 (iao:0000013)--><g id="elem_iao:0000013 (iao:0000013)"><rect codeLine="56" fill="#F1F1F1" height="26.2969" id="iao:0000013 (iao:0000013)" rx="2.5" ry="2.5" style="stroke:#181818;stroke-width:0.5;" width="196" x="1357" y="280.5"/><text fill="#000000" font-family="sans-serif" font-size="14" lengthAdjust="spacing" textLength="190" x="1360" y="298.4951">iao:0000013 (iao:0000013)</text></g><!--class dcat:Catalog (dcat:Catalog)--><g id="elem_dcat:Catalog (dcat:Catalog)"><rect codeLine="58" fill="#F1F1F1" height="50.5938" id="dcat:Catalog (dcat:Catalog)" rx="2.5" ry="2.5" style="stroke:#181818;stroke-width:0.5;" width="402" x="2232" y="268"/><text fill="#000000" font-family="sans-serif" font-size="14" lengthAdjust="spacing" textLength="188" x="2339" y="285.9951">dcat:Catalog (dcat:Catalog)</text><line style="stroke:#181818;stroke-width:0.5;" x1="2233" x2="2633" y1="294.2969" y2="294.2969"/><ellipse cx="2243" cy="307.9453" fill="none" rx="3" ry="3" style="stroke:#038048;stroke-width:1.0;"/><text fill="#000000" font-family="sans-serif" font-size="14" lengthAdjust="spacing" textLength="376" x="2252" y="311.292">dcterms:creator : foaf:Person [0..1] sh:BlankNodeOrIRI</text></g><!--class sio:000983 (sio:000983)--><g id="elem_sio:000983 (sio:000983)"><rect codeLine="62" fill="#F1F1F1" height="26.2969" id="sio:000983 (sio:000983)" rx="2.5" ry="2.5" style="stroke:#181818;stroke-width:0.5;" width="178" x="1730" y="280.5"/><text fill="#000000" font-family="sans-serif" font-size="14" lengthAdjust="spacing" textLength="172" x="1733" y="298.4951">sio:000983 (sio:000983)</text></g><!--link ncit:C172573 (ncit:C172573) to sio:010038 (sio:010038)--><g id="link_ncit:C172573 (ncit:C172573)_sio:010038 (sio:010038)"><path codeLine="9" d="M684,178.7161 C684,203.244 684,249.546 684,274.164 " fill="none" id="ncit:C172573 (ncit:C172573)-to-sio:010038 (sio:010038)" style="stroke:#800000;stroke-width:1.0;"/><polygon fill="#800000" points="684,280.164,688,271.164,684,275.164,680,271.164,684,280.164" style="stroke:#800000;stroke-width:1.0;"/><text fill="#000000" font-family="sans-serif" font-size="13" lengthAdjust="spacing" textLength="114" x="685" y="234.0669">owl:sameAs [0..1]</text></g><!--link sio:001077 (sio:001077) to ncit:C16612 (ncit:C16612)--><g id="link_sio:001077 (sio:001077)_ncit:C16612 (ncit:C16612)"><path codeLine="11" d="M448.6993,306.5919 C463.5794,316.5601 482.7697,331.5198 495,349 C519.8183,384.4715 492.6604,414.6378 527,441 C563.0561,468.68 890.1789,463.4306 935,471 C1054.3011,491.1476 1185.6657,531.3014 1251.298,552.6254 " fill="none" id="sio:001077 (sio:001077)-to-ncit:C16612 (ncit:C16612)" style="stroke:#800000;stroke-width:1.0;"/><polygon fill="#800000" points="1257.0044,554.4794,1249.6808,547.8941,1252.2491,552.9344,1247.2088,555.5026,1257.0044,554.4794" style="stroke:#800000;stroke-width:1.0;"/><text fill="#000000" font-family="sans-serif" font-size="13" lengthAdjust="spacing" textLength="108" x="528" y="399.5669">sio:000230 [0..1]</text></g><!--link sio:001077 (sio:001077) to ncit:C43531 (ncit:C43531)--><g id="link_sio:001077 (sio:001077)_ncit:C43531 (ncit:C43531)"><path codeLine="12" d="M411.3442,306.77 C400.5214,317.0348 387.0274,332.2824 381,349 C367.1316,387.4652 364.6034,403.5427 381,441 C404.2375,494.0851 456.8215,531.6815 489.4423,551.3599 " fill="none" id="sio:001077 (sio:001077)-to-ncit:C43531 (ncit:C43531)" style="stroke:#800000;stroke-width:1.0;"/><polygon fill="#800000" points="494.5799,554.4591,488.9397,546.3852,490.2986,551.8764,484.8074,553.2353,494.5799,554.4591" style="stroke:#800000;stroke-width:1.0;"/><text fill="#000000" font-family="sans-serif" font-size="13" lengthAdjust="spacing" textLength="108" x="382" y="399.5669">sio:001403 [0..1]</text></g><!--link schema:WebAPI (schema:WebAPI) to void:Dataset (void:Dataset)--><g id="link_schema:WebAPI (schema:WebAPI)_void:Dataset (void:Dataset)"><path codeLine="14" d="M2406.6437,741.3625 C2417.4181,733.9814 2429.0711,723.6896 2435,711 C2456.6005,664.7684 2420.4302,611.3384 2399.4561,585.5497 " fill="none" id="schema:WebAPI (schema:WebAPI)-to-void:Dataset (void:Dataset)" style="stroke:#800000;stroke-width:1.0;"/><polygon fill="#800000" points="2395.6703,580.8949,2398.2458,590.401,2398.8251,584.7739,2404.4523,585.3533,2395.6703,580.8949" style="stroke:#800000;stroke-width:1.0;"/><text fill="#000000" font-family="sans-serif" font-size="13" lengthAdjust="spacing" textLength="163" x="2440" y="707.0669">dcat:servesDataset [0..1]</text></g><!--link void:Dataset (void:Dataset) to schema:WebAPI (schema:WebAPI)--><g id="link_void:Dataset (void:Dataset)_schema:WebAPI (schema:WebAPI)"><path codeLine="55" d="M2363.0761,580.6094 C2325.7537,605.6768 2254.4359,662.2522 2286,711 C2295.2788,725.3302 2304.9719,732.6904 2320.6507,739.1761 " fill="none" id="void:Dataset (void:Dataset)-to-schema:WebAPI (schema:WebAPI)" style="stroke:#800000;stroke-width:1.0;"/><polygon fill="#800000" points="2326.1951,741.4696,2319.4075,734.3331,2321.5748,739.5584,2316.3496,741.7256,2326.1951,741.4696" style="stroke:#800000;stroke-width:1.0;"/><text fill="#000000" font-family="sans-serif" font-size="13" lengthAdjust="spacing" textLength="139" x="2287" y="707.0669">dcat:accessURL [0..1]</text></g><!--link schema:WebAPI (schema:WebAPI) to schema:WebAPI (schema:WebAPI)--><g id="link_schema:WebAPI (schema:WebAPI)_schema:WebAPI (schema:WebAPI)"><path codeLine="15" d="M2505.1101,745.4178 C2525.7376,746.6738 2540,749.7012 2540,754.5 C2540,759.2988 2531.7265,761.9615 2511.099,763.2175 " fill="none" id="schema:WebAPI (schema:WebAPI)-to-schema:WebAPI (schema:WebAPI)" style="stroke:#800000;stroke-width:1.0;"/><polygon fill="#800000" points="2505.1101,763.5822,2514.3366,767.0278,2510.1009,763.2783,2513.8504,759.0426,2505.1101,763.5822" style="stroke:#800000;stroke-width:1.0;"/><text fill="#000000" font-family="sans-serif" font-size="13" lengthAdjust="spacing" textLength="151" x="2546" y="759.0669">dcat:endpointURL [0..1]</text></g><!--link dcat:Dataset (dcat:Dataset) to void:Dataset (void:Dataset)--><g id="link_dcat:Dataset (dcat:Dataset)_void:Dataset (void:Dataset)"><path codeLine="17" d="M2890.1816,306.5531 C2838.3535,318.6839 2766.5254,336.683 2740,349 C2675.1413,379.1169 2668.5345,402.9309 2608,441 C2537.4901,485.3424 2456.1322,529.4049 2414.2757,551.5868 " fill="none" id="dcat:Dataset (dcat:Dataset)-to-void:Dataset (void:Dataset)" style="stroke:#800000;stroke-width:1.0;"/><polygon fill="#800000" points="2408.9742,554.3964,2418.7996,553.7164,2413.3922,552.0551,2415.0535,546.6477,2408.9742,554.3964" style="stroke:#800000;stroke-width:1.0;"/><text fill="#000000" font-family="sans-serif" font-size="13" lengthAdjust="spacing" textLength="138" x="2741" y="392.0669">dcterms:source [0..1]</text><text fill="#000000" font-family="sans-serif" font-size="13" lengthAdjust="spacing" textLength="155" x="2741" y="407.1997">pav:retrievedFrom [0..1]</text></g><!--link dcat:Dataset (dcat:Dataset) to schema:WebAPI (schema:WebAPI)--><g id="link_dcat:Dataset (dcat:Dataset)_schema:WebAPI (schema:WebAPI)"><path codeLine="18" d="M2945.9289,306.564 C2941.2484,333.3607 2928.0887,395.8213 2901,441 C2829.8854,559.6055 2790.7729,576.1132 2684,664 C2654.4951,688.286 2647.4454,696.7183 2612,711 C2576.5289,725.2921 2541.9499,733.9195 2504.9823,740.4298 " fill="none" id="dcat:Dataset (dcat:Dataset)-to-schema:WebAPI (schema:WebAPI)" style="stroke:#800000;stroke-width:1.0;"/><polygon fill="#800000" points="2499.0732,741.4704,2508.6306,743.8488,2503.9974,740.6032,2507.243,735.9701,2499.0732,741.4704" style="stroke:#800000;stroke-width:1.0;"/><text fill="#000000" font-family="sans-serif" font-size="13" lengthAdjust="spacing" textLength="139" x="2881" y="572.0669">dcat:accessURL [0..1]</text></g><!--link aopo:KeyEvent (aopo:KeyEvent) to sio:010038 (sio:010038)--><g id="link_aopo:KeyEvent (aopo:KeyEvent)_sio:010038 (sio:010038)"><path codeLine="24" d="M1260.4592,191.0184 C1108.6693,218.0032 881.1252,258.4555 763.3081,279.4008 " fill="none" id="aopo:KeyEvent (aopo:KeyEvent)-to-sio:010038 (sio:010038)" style="stroke:#800000;stroke-width:1.0;"/><polygon fill="#800000" points="757.4007,280.451,766.9619,282.8139,762.3235,279.5758,765.5616,274.9374,757.4007,280.451" style="stroke:#800000;stroke-width:1.0;"/><text fill="#000000" font-family="sans-serif" font-size="13" lengthAdjust="spacing" textLength="70" x="1089" y="234.0669">sio:001403</text></g><!--link aopo:KeyEvent (aopo:KeyEvent) to ncit:C16612 (ncit:C16612)--><g id="link_aopo:KeyEvent (aopo:KeyEvent)_ncit:C16612 (ncit:C16612)"><path codeLine="25" d="M1477.1456,191.0897 C1511.8583,207.3518 1550.0351,232.2081 1570,268 C1585.7347,296.2083 1590.07,400.8164 1563,441 C1518.8664,506.5132 1437.0358,537.5488 1374.1907,553.0231 " fill="none" id="aopo:KeyEvent (aopo:KeyEvent)-to-ncit:C16612 (ncit:C16612)" style="stroke:#800000;stroke-width:1.0;"/><polygon fill="#800000" points="1368.3647,554.4576,1378.06,556.1898,1373.2197,553.2622,1376.1473,548.4218,1368.3647,554.4576" style="stroke:#800000;stroke-width:1.0;"/><text fill="#000000" font-family="sans-serif" font-size="13" lengthAdjust="spacing" textLength="70" x="1583" y="298.0669">sio:001403</text></g><!--link rdf:Property (rdf:Property) to rdfs:Class (rdfs:Class)--><g id="link_rdf:Property (rdf:Property)_rdfs:Class (rdfs:Class)"><path codeLine="28" d="M1731,33.1688 C1731,60.8703 1731,118.8823 1731,146.4658 " fill="none" id="rdf:Property (rdf:Property)-to-rdfs:Class (rdfs:Class)" style="stroke:#800000;stroke-width:1.0;"/><polygon fill="#800000" points="1731,152.4658,1735,143.4658,1731,147.4658,1727,143.4658,1731,152.4658" style="stroke:#800000;stroke-width:1.0;"/><text fill="#000000" font-family="sans-serif" font-size="13" lengthAdjust="spacing" textLength="87" x="1732" y="76.0669">rdf:type [0..1]</text><text fill="#000000" font-family="sans-serif" font-size="13" lengthAdjust="spacing" textLength="114" x="1732" y="91.1997">rdfs:domain [0..1]</text><text fill="#000000" font-family="sans-serif" font-size="13" lengthAdjust="spacing" textLength="103" x="1732" y="106.3325">rdfs:range [0..1]</text></g><!--link sio:010038 (sio:010038) to wp:Interaction (wp:Interaction)--><g id="link_sio:010038 (sio:010038)_wp:Interaction (wp:Interaction)"><path codeLine="30" d="M734.5097,306.5203 C756.5397,314.9052 780.4002,328.2463 794,349 C879.4116,479.3405 835.9813,681.0275 822.1031,735.3295 " fill="none" id="sio:010038 (sio:010038)-to-wp:Interaction (wp:Interaction)" style="stroke:#800000;stroke-width:1.0;"/><polygon fill="#800000" points="820.6174,741.1427,826.7214,733.4134,821.8555,736.2984,818.9705,731.4325,820.6174,741.1427" style="stroke:#800000;stroke-width:1.0;"/><text fill="#000000" font-family="sans-serif" font-size="13" lengthAdjust="spacing" textLength="108" x="846" y="572.0669">sio:000068 [0..1]</text></g><!--link sio:010038 (sio:010038) to ncit:C16612 (ncit:C16612)--><g id="link_sio:010038 (sio:010038)_ncit:C16612 (ncit:C16612)"><path codeLine="31" d="M756.2995,306.5509 C784.1405,314.724 814.4023,327.8913 836,349 C867.401,379.6901 839.6904,411.268 872,441 C899.8038,466.5856 1129.4957,526.11 1237.0231,552.9657 " fill="none" id="sio:010038 (sio:010038)-to-ncit:C16612 (ncit:C16612)" style="stroke:#800000;stroke-width:1.0;"/><polygon fill="#800000" points="1242.8443,554.4196,1235.0818,548.358,1237.9933,553.208,1233.1433,556.1196,1242.8443,554.4196" style="stroke:#800000;stroke-width:1.0;"/><text fill="#000000" font-family="sans-serif" font-size="13" lengthAdjust="spacing" textLength="181" x="873" y="384.5669">wp:DirectedInteraction [0..1]</text><text fill="#000000" font-family="sans-serif" font-size="13" lengthAdjust="spacing" textLength="127" x="873" y="399.6997">wp:Interaction [0..1]</text><text fill="#000000" font-family="sans-serif" font-size="13" lengthAdjust="spacing" textLength="132" x="873" y="414.8325">wp:Stimulation [0..1]</text></g><!--link sio:010038 (sio:010038) to sio:010038 (sio:010038)--><g id="link_sio:010038 (sio:010038)_sio:010038 (sio:010038)"><path codeLine="32" d="M773.1718,281.793 C793.2871,282.8477 808,286.75 808,293.5 C808,300.25 799.2789,303.8381 779.1636,304.8928 " fill="none" id="sio:010038 (sio:010038)-to-sio:010038 (sio:010038)" style="stroke:#800000;stroke-width:1.0;"/><polygon fill="#800000" points="773.1718,305.207,782.3689,308.7303,778.1649,304.9452,781.95,300.7412,773.1718,305.207" style="stroke:#800000;stroke-width:1.0;"/><text fill="#000000" font-family="sans-serif" font-size="13" lengthAdjust="spacing" textLength="114" x="814" y="298.0669">owl:sameAs [0..1]</text></g><!--link sio:010038 (sio:010038) to void:Dataset (void:Dataset)--><g id="link_sio:010038 (sio:010038)_void:Dataset (void:Dataset)"><path codeLine="33" d="M773.404,301.8587 C877.2899,312.3226 1037.3277,331.0584 1059,349 C1092.3473,376.6067 1056.0464,415.4575 1091,441 C1142.6012,478.7079 2180.1329,451.5123 2241,471 C2294.6254,488.1691 2342.2153,528.0785 2366.0482,550.2395 " fill="none" id="sio:010038 (sio:010038)-to-void:Dataset (void:Dataset)" style="stroke:#800000;stroke-width:1.0;"/><polygon fill="#800000" points="2370.4422,554.3252,2366.5751,545.2673,2366.7806,550.9204,2361.1274,551.1259,2370.4422,554.3252" style="stroke:#800000;stroke-width:1.0;"/><text fill="#000000" font-family="sans-serif" font-size="13" lengthAdjust="spacing" textLength="156" x="1092" y="399.5669">pav:importedFrom [0..1]</text></g><!--link sio:010038 (sio:010038) to ncit:C43531 (ncit:C43531)--><g id="link_sio:010038 (sio:010038)_ncit:C43531 (ncit:C43531)"><path codeLine="34" d="M682.85,306.5971 C680.0148,333.4549 670.9279,396.0223 645,441 C616.7135,490.0694 569.2562,529.7043 541.4089,550.6 " fill="none" id="sio:010038 (sio:010038)-to-ncit:C43531 (ncit:C43531)" style="stroke:#800000;stroke-width:1.0;"/><polygon fill="#800000" points="536.6097,554.2011,546.2092,551.9988,540.609,551.2002,541.4077,545.6,536.6097,554.2011" style="stroke:#800000;stroke-width:1.0;"/><text fill="#000000" font-family="sans-serif" font-size="13" lengthAdjust="spacing" textLength="108" x="677" y="399.5669">sio:001403 [0..1]</text></g><!--link pw:0000001 (pw:0000001) to ncit:C16612 (ncit:C16612)--><g id="link_pw:0000001 (pw:0000001)_ncit:C16612 (ncit:C16612)"><path codeLine="38" d="M1220.0601,319.0044 C1234.1487,326.6481 1247.3256,336.4601 1257,349 C1306.0759,412.6119 1301.6576,511.5721 1298.1147,548.3219 " fill="none" id="pw:0000001 (pw:0000001)-to-ncit:C16612 (ncit:C16612)" style="stroke:#800000;stroke-width:1.0;"/><polygon fill="#800000" points="1297.5389,554.2942,1302.3841,545.7196,1298.0187,549.3173,1294.421,544.9519,1297.5389,554.2942" style="stroke:#800000;stroke-width:1.0;"/><text fill="#000000" font-family="sans-serif" font-size="13" lengthAdjust="spacing" textLength="108" x="1295" y="399.5669">sio:000028 [0..1]</text></g><!--link dcat:DataService (dcat:DataService) to void:Dataset (void:Dataset)--><g id="link_dcat:DataService (dcat:DataService)_void:Dataset (void:Dataset)"><path codeLine="40" d="M2084.3411,306.6784 C2112.6831,332.6599 2177.9794,392.2076 2234,441 C2282.2943,483.063 2335.9305,527.7422 2363.4726,550.5428 " fill="none" id="dcat:DataService (dcat:DataService)-to-void:Dataset (void:Dataset)" style="stroke:#800000;stroke-width:1.0;"/><polygon fill="#800000" points="2368.0944,554.3689,2363.7125,545.5485,2364.2429,551.1805,2358.611,551.7109,2368.0944,554.3689" style="stroke:#800000;stroke-width:1.0;"/><text fill="#000000" font-family="sans-serif" font-size="13" lengthAdjust="spacing" textLength="163" x="2235" y="399.5669">dcat:servesDataset [0..1]</text></g><!--link dcat:DataService (dcat:DataService) to schema:WebAPI (schema:WebAPI)--><g id="link_dcat:DataService (dcat:DataService)_schema:WebAPI (schema:WebAPI)"><path codeLine="41" d="M2067.2457,306.5083 C2057.0597,358.4123 2026.6009,553.2388 2117,664 C2143.14,696.028 2245.4294,723.972 2315.5215,740.1091 " fill="none" id="dcat:DataService (dcat:DataService)-to-schema:WebAPI (schema:WebAPI)" style="stroke:#800000;stroke-width:1.0;"/><polygon fill="#800000" points="2321.3685,741.4552,2313.4954,735.538,2316.496,740.3334,2311.7005,743.334,2321.3685,741.4552" style="stroke:#800000;stroke-width:1.0;"/><text fill="#000000" font-family="sans-serif" font-size="13" lengthAdjust="spacing" textLength="151" x="2118" y="572.0669">dcat:endpointURL [0..1]</text></g><!--link ncit:C16612 (ncit:C16612) to wp:Interaction (wp:Interaction)--><g id="link_ncit:C16612 (ncit:C16612)_wp:Interaction (wp:Interaction)"><path codeLine="43" d="M1262.6979,580.501 C1174.9693,614.75 943.8277,704.9869 855.9887,739.2789 " fill="none" id="ncit:C16612 (ncit:C16612)-to-wp:Interaction (wp:Interaction)" style="stroke:#800000;stroke-width:1.0;"/><polygon fill="#800000" points="850.3995,741.4609,860.2379,741.914,855.0571,739.6426,857.3286,734.4618,850.3995,741.4609" style="stroke:#800000;stroke-width:1.0;"/><text fill="#000000" font-family="sans-serif" font-size="13" lengthAdjust="spacing" textLength="108" x="973" y="707.0669">sio:000068 [0..1]</text></g><!--link ncit:C16612 (ncit:C16612) to ncit:C16612 (ncit:C16612)--><g id="link_ncit:C16612 (ncit:C16612)_ncit:C16612 (ncit:C16612)"><path codeLine="44" d="M1318.676,554.3858 C1364.0148,534.7976 1426,539.1689 1426,567.5 C1426,595.8311 1369.5227,602.582 1324.1839,582.9938 " fill="none" id="ncit:C16612 (ncit:C16612)-to-ncit:C16612 (ncit:C16612)" style="stroke:#800000;stroke-width:1.0;"/><polygon fill="#800000" points="1318.676,580.6142,1325.3515,587.8556,1323.2659,582.5972,1328.5243,580.5117,1318.676,580.6142" style="stroke:#800000;stroke-width:1.0;"/><text fill="#000000" font-family="sans-serif" font-size="13" lengthAdjust="spacing" textLength="130" x="1432" y="489.0669">wp:Conversion [0..1]</text><text fill="#000000" font-family="sans-serif" font-size="13" lengthAdjust="spacing" textLength="181" x="1432" y="504.1997">wp:DirectedInteraction [0..1]</text><text fill="#000000" font-family="sans-serif" font-size="13" lengthAdjust="spacing" textLength="116" x="1432" y="519.3325">wp:Inhibition [0..1]</text><text fill="#000000" font-family="sans-serif" font-size="13" lengthAdjust="spacing" textLength="127" x="1432" y="534.4653">wp:Interaction [0..1]</text><text fill="#000000" font-family="sans-serif" font-size="13" lengthAdjust="spacing" textLength="132" x="1432" y="549.5981">wp:Stimulation [0..1]</text><text fill="#000000" font-family="sans-serif" font-size="13" lengthAdjust="spacing" textLength="211" x="1432" y="564.731">wp:TranscriptionTranslation [0..1]</text><text fill="#000000" font-family="sans-serif" font-size="13" lengthAdjust="spacing" textLength="236" x="1432" y="579.8638">example:interactionConversion [0..1]</text><text fill="#000000" font-family="sans-serif" font-size="13" lengthAdjust="spacing" textLength="287" x="1432" y="594.9966">example:interactionDirectedInteraction [0..1]</text><text fill="#000000" font-family="sans-serif" font-size="13" lengthAdjust="spacing" textLength="222" x="1432" y="610.1294">example:interactionInhibition [0..1]</text><text fill="#000000" font-family="sans-serif" font-size="13" lengthAdjust="spacing" textLength="233" x="1432" y="625.2622">example:interactionInteraction [0..1]</text><text fill="#000000" font-family="sans-serif" font-size="13" lengthAdjust="spacing" textLength="238" x="1432" y="640.395">example:interactionStimulation [0..1]</text><text fill="#000000" font-family="sans-serif" font-size="13" lengthAdjust="spacing" textLength="317" x="1432" y="655.5278">example:interactionTranscriptionTranslation [0..1]</text></g><!--link ncit:C16612 (ncit:C16612) to ncit:C25338 (ncit:C25338)--><g id="link_ncit:C16612 (ncit:C16612)_ncit:C25338 (ncit:C25338)"><path codeLine="45" d="M1319.0125,580.501 C1379.5617,614.7086 1537.602,703.9942 1598.4755,738.385 " fill="none" id="ncit:C16612 (ncit:C16612)-to-ncit:C25338 (ncit:C25338)" style="stroke:#800000;stroke-width:1.0;"/><polygon fill="#800000" points="1603.6995,741.3363,1597.8311,733.4267,1599.3462,738.8769,1593.896,740.392,1603.6995,741.3363" style="stroke:#800000;stroke-width:1.0;"/><text fill="#000000" font-family="sans-serif" font-size="13" lengthAdjust="spacing" textLength="108" x="1549" y="707.0669">sio:000216 [0..1]</text></g><!--link aopo:AOP (aopo:AOP) to aopo:KeyEvent (aopo:KeyEvent)--><g id="link_aopo:AOP (aopo:AOP)_aopo:KeyEvent (aopo:KeyEvent)"><path codeLine="47" d="M1404,33.1688 C1404,57.2327 1404,102.6972 1404,133.8799 " fill="none" id="aopo:AOP (aopo:AOP)-to-aopo:KeyEvent (aopo:KeyEvent)" style="stroke:#800000;stroke-width:1.0;"/><polygon fill="#800000" points="1404,139.8799,1408,130.8799,1404,134.8799,1400,130.8799,1404,139.8799" style="stroke:#800000;stroke-width:1.0;"/><text fill="#000000" font-family="sans-serif" font-size="13" lengthAdjust="spacing" textLength="169" x="1405" y="91.0669">aopo:has_key_event [0..1]</text></g><!--link ncit:C17021 (ncit:C17021) to wp:Interaction (wp:Interaction)--><g id="link_ncit:C17021 (ncit:C17021)_wp:Interaction (wp:Interaction)"><path codeLine="49" d="M98.2614,306.6774 C91.4454,333.1594 79.2569,394.293 97,441 C144.0679,564.9017 179.2089,599.5064 295,664 C364.3049,702.6016 571.2552,729.6399 702.777,743.5841 " fill="none" id="ncit:C17021 (ncit:C17021)-to-wp:Interaction (wp:Interaction)" style="stroke:#800000;stroke-width:1.0;"/><polygon fill="#800000" points="708.7436,744.2167,700.2155,739.2901,703.7715,743.6895,699.372,747.2455,708.7436,744.2167" style="stroke:#800000;stroke-width:1.0;"/><text fill="#000000" font-family="sans-serif" font-size="13" lengthAdjust="spacing" textLength="108" x="296" y="572.0669">sio:000068 [0..1]</text></g><!--link ncit:C17021 (ncit:C17021) to ncit:C16612 (ncit:C16612)--><g id="link_ncit:C17021 (ncit:C17021)_ncit:C16612 (ncit:C16612)"><path codeLine="50" d="M101.6213,306.9151 C101.5956,336.7367 106.2162,408.4596 149,441 C183.7814,467.4539 891.7901,464.4837 935,471 C1055.4395,489.1629 1187.704,530.6763 1252.6998,552.5404 " fill="none" id="ncit:C17021 (ncit:C17021)-to-ncit:C16612 (ncit:C16612)" style="stroke:#800000;stroke-width:1.0;"/><polygon fill="#800000" points="1258.3867,554.4534,1251.1318,547.7926,1253.6477,552.8592,1248.5811,555.3751,1258.3867,554.4534" style="stroke:#800000;stroke-width:1.0;"/><text fill="#000000" font-family="sans-serif" font-size="13" lengthAdjust="spacing" textLength="130" x="150" y="362.0669">wp:Conversion [0..1]</text><text fill="#000000" font-family="sans-serif" font-size="13" lengthAdjust="spacing" textLength="181" x="150" y="377.1997">wp:DirectedInteraction [0..1]</text><text fill="#000000" font-family="sans-serif" font-size="13" lengthAdjust="spacing" textLength="116" x="150" y="392.3325">wp:Inhibition [0..1]</text><text fill="#000000" font-family="sans-serif" font-size="13" lengthAdjust="spacing" textLength="127" x="150" y="407.4653">wp:Interaction [0..1]</text><text fill="#000000" font-family="sans-serif" font-size="13" lengthAdjust="spacing" textLength="132" x="150" y="422.5981">wp:Stimulation [0..1]</text><text fill="#000000" font-family="sans-serif" font-size="13" lengthAdjust="spacing" textLength="211" x="150" y="437.731">wp:TranscriptionTranslation [0..1]</text></g><!--link rdfs:Class (rdfs:Class) to rdfs:Class (rdfs:Class)--><g id="link_rdfs:Class (rdfs:Class)_rdfs:Class (rdfs:Class)"><path codeLine="52" d="M1809.1622,153.6436 C1829.0612,154.4229 1844,158.375 1844,165.5 C1844,172.625 1835.0566,176.3423 1815.1576,177.1216 " fill="none" id="rdfs:Class (rdfs:Class)-to-rdfs:Class (rdfs:Class)" style="stroke:#800000;stroke-width:1.0;"/><polygon fill="#800000" points="1809.1622,177.3564,1818.3118,181.0011,1814.1584,177.1607,1817.9988,173.0073,1809.1622,177.3564" style="stroke:#800000;stroke-width:1.0;"/><text fill="#000000" font-family="sans-serif" font-size="13" lengthAdjust="spacing" textLength="137" x="1850" y="170.0669">rdfs:subClassOf [0..1]</text></g><!--link void:Dataset (void:Dataset) to void:Dataset (void:Dataset)--><g id="link_void:Dataset (void:Dataset)_void:Dataset (void:Dataset)"><path codeLine="54" d="M2407.0249,554.3858 C2453.0612,534.7976 2516,539.1689 2516,567.5 C2516,595.8311 2458.5822,602.5516 2412.5459,582.9634 " fill="none" id="void:Dataset (void:Dataset)-to-void:Dataset (void:Dataset)" style="stroke:#800000;stroke-width:1.0;"/><polygon fill="#800000" points="2407.0249,580.6142,2413.7403,587.8186,2411.6257,582.5718,2416.8725,580.4573,2407.0249,580.6142" style="stroke:#800000;stroke-width:1.0;"/><text fill="#000000" font-family="sans-serif" font-size="13" lengthAdjust="spacing" textLength="138" x="2522" y="564.5669">dcterms:source [0..1]</text><text fill="#000000" font-family="sans-serif" font-size="13" lengthAdjust="spacing" textLength="155" x="2522" y="579.6997">pav:retrievedFrom [0..1]</text></g><!--link iao:0000013 (iao:0000013) to ncit:C16612 (ncit:C16612)--><g id="link_iao:0000013 (iao:0000013)_ncit:C16612 (ncit:C16612)"><path codeLine="57" d="M1453.2487,306.5023 C1449.2311,333.1851 1437.654,395.4468 1412,441 C1385.096,488.7728 1341.5116,529.3355 1316.5524,550.5594 " fill="none" id="iao:0000013 (iao:0000013)-to-ncit:C16612 (ncit:C16612)" style="stroke:#800000;stroke-width:1.0;"/><polygon fill="#800000" points="1311.9815,554.4462,1321.429,551.6632,1315.7906,551.2072,1316.2466,545.5688,1311.9815,554.4462" style="stroke:#800000;stroke-width:1.0;"/><text fill="#000000" font-family="sans-serif" font-size="13" lengthAdjust="spacing" textLength="108" x="1446" y="399.5669">sio:000628 [0..1]</text></g><!--link dcat:Catalog (dcat:Catalog) to dcat:Catalog (dcat:Catalog)--><g id="link_dcat:Catalog (dcat:Catalog)_dcat:Catalog (dcat:Catalog)"><path codeLine="60" d="M2634.4223,283.5574 C2655.496,285.4983 2669,288.8125 2669,293.5 C2669,298.1875 2661.4707,300.9514 2640.397,302.8923 " fill="none" id="dcat:Catalog (dcat:Catalog)-to-dcat:Catalog (dcat:Catalog)" style="stroke:#800000;stroke-width:1.0;"/><polygon fill="#800000" points="2634.4223,303.4426,2643.7512,306.6003,2639.4012,302.984,2643.0175,298.634,2634.4223,303.4426" style="stroke:#800000;stroke-width:1.0;"/><text fill="#000000" font-family="sans-serif" font-size="13" lengthAdjust="spacing" textLength="150" x="2675" y="298.0669">dcterms:identifier [0..1]</text></g><!--link dcat:Catalog (dcat:Catalog) to void:Dataset (void:Dataset)--><g id="link_dcat:Catalog (dcat:Catalog)_void:Dataset (void:Dataset)"><path codeLine="61" d="M2428.3902,319.2773 C2418.1935,376.2953 2395.0811,505.536 2387.4253,548.3463 " fill="none" id="dcat:Catalog (dcat:Catalog)-to-void:Dataset (void:Dataset)" style="stroke:#800000;stroke-width:1.0;"/><polygon fill="#800000" points="2386.3691,554.2526,2391.891,546.0973,2387.2493,549.3307,2384.0159,544.689,2386.3691,554.2526" style="stroke:#800000;stroke-width:1.0;"/><text fill="#000000" font-family="sans-serif" font-size="13" lengthAdjust="spacing" textLength="138" x="2423" y="392.0669">dcterms:source [0..1]</text><text fill="#000000" font-family="sans-serif" font-size="13" lengthAdjust="spacing" textLength="176" x="2423" y="407.1997">prov:wasDerivedFrom [0..1]</text></g><!--link sio:000983 (sio:000983) to ncit:C16612 (ncit:C16612)--><g id="link_sio:000983 (sio:000983)_ncit:C16612 (ncit:C16612)"><path codeLine="63" d="M1757.9389,306.5705 C1731.4588,314.9012 1701.8162,328.1838 1681,349 C1649.8366,380.1634 1675.6845,410.3664 1644,441 C1575.0227,507.6895 1474.0787,538.4672 1396.9754,553.4966 " fill="none" id="sio:000983 (sio:000983)-to-ncit:C16612 (ncit:C16612)" style="stroke:#800000;stroke-width:1.0;"/><polygon fill="#800000" points="1391.0862,554.6445,1400.6852,556.8487,1395.9938,553.6879,1399.1546,548.9965,1391.0862,554.6445" style="stroke:#800000;stroke-width:1.0;"/><text fill="#000000" font-family="sans-serif" font-size="13" lengthAdjust="spacing" textLength="108" x="1682" y="399.5669">sio:000628 [0..1]</text></g><!--link sio:000983 (sio:000983) to ncit:C25338 (ncit:C25338)--><g id="link_sio:000983 (sio:000983)_ncit:C25338 (ncit:C25338)"><path codeLine="64" d="M1820.2075,306.5758 C1824.2189,357.1504 1832.8108,543.1251 1756,664 C1732.5237,700.9439 1693.415,724.4707 1663.3251,738.8622 " fill="none" id="sio:000983 (sio:000983)-to-ncit:C25338 (ncit:C25338)" style="stroke:#800000;stroke-width:1.0;"/><polygon fill="#800000" points="1657.9123,741.451,1667.7573,741.1763,1662.4229,739.2936,1664.3055,733.9592,1657.9123,741.451" style="stroke:#800000;stroke-width:1.0;"/><text fill="#000000" font-family="sans-serif" font-size="13" lengthAdjust="spacing" textLength="108" x="1817" y="572.0669">sio:000216 [0..1]</text></g><!--SRC=[vHZRRjisz5rVmMOlAeeMaXNR6J4KTPrUZ5uS92twi0q58nt7H2HI86axtjUFekM8RaHAIxszx8tdedFZkL4I56Aa05cI5AwW988eBX3Z309vIrc5A52Q4odVSgQkw5-0ujFWIGOBoW1zdBrx_sL-EVdyxetDpejI2z3iQfi3MXNvmA9k12a_WPJa1hxHJ2rH74KMUI84tqnvhgtuvHCHdBD0ker4mRIo3Psmb2eyZSU3uJX1eGqzFK61d_py-Kjq8Yd7aJObEKDXSzPKZFWcnrBhdyZVlZwBeadqylVenOluJtIltNoWlnYFwu_DsMXsaepMsfBHA1xScrK1Hk-EFHeaqGEzlSIU9iCateirW2KsFeqIfplf4Wg2ly7rv6AcvTlWpYa_Wx5XpMc6puaYrVM5DcIio5AYi0In1bcZMvpieQQ3frO4B2ivPUhhvKUNquRltbuRCYvxoVqSLY0AYILVYHH-jEAFl2HhB4092cl8tWfUF8n7jmtzea7IL1UW9nQR4i-ODfUaYdA6maEuYiT1sRKcsfvbmSa2Nu2GbI0Bi5W8Bpd-0DitQzqqK7W0ck1tC63qpA3cueQmgUvJSAUQH1-C1gXsK2xnwvomsyyyWxcONSvGj_2kxj2KKqzPFMf-9-qWneDXKYct02k08jDH5Rm4eROej24JFY_PsAHn4k-4XStPM5IngstPah66CUC5eSn158JTWBTfjiKqS9ECiPtPUTywez6PetKwXNjlHsiwfm9q9MUMneVE7rhKIhzIj5Zbf8tUPUBZHbM7q8xkLNKdgiUwKAxcr2UiZvz8JIc7pTcgW79ZxblZKTYSJJ8vIRfjx4ViC6cIPZoClFt2AQ_tH8y6PvrJw4gFHfg2rUPhpE4qyh4TQmptLtQqOUo9Ok0Z7gC_T8dlwX1w0AtrX7CLVly6igJNzD_eBuR-HVTccGfQLXm6S3737IdA731jDFfSR67lvNBBTxuGjBB_C_7U4BNmzmrPtnHg7UdDsX-FNDLXreh9_A9UCFIfsP9-H1jzdVkJmIo9_7uBs-zGeJigSwpjQnvI6ZXuPhKGZrYPJl7_hygqbh_stIrmateiVVgbihescFd2fTexN08_-JzwCtNRSAGt4oMxn8tY18KMO2BX8VRU6aOTMyDKkvNpctewrr2pBRZ8UWlQXpaLOFwiO6G_sdoxa5UoyQn3zrurpNJFeGiAmh5_U9NyR1e9liOR8iz1K5SY7IoYqQzdoNuHhSxMdvuMqa_TS2-nZvuarieRDkVAdQM-4PHIaUQmEnUWbZoJEm2AKZyb2oYkTOu40Wg-1lHgnNBARY7x6m00]--></g></svg>
